<svg xmlns="http://www.w3.org/2000/svg" xmlns:xlink="http://www.w3.org/1999/xlink" width="40" zoomAndPan="magnify" viewBox="0 0 30 30.000001" height="40" preserveAspectRatio="xMidYMid meet" version="1.0"><defs><clipPath id="c1f1767f5f"><path d="M 0.992188 0.507812 L 29.296875 0.507812 L 29.296875 28.816406 L 0.992188 28.816406 Z M 0.992188 0.507812 " clip-rule="nonzero"/></clipPath></defs><g clip-path="url(#c1f1767f5f)"><path fill="#000000" d="M 22.128906 0.507812 L 8.160156 0.507812 C 7.691406 0.507812 7.226562 0.554688 6.765625 0.648438 C 6.300781 0.738281 5.855469 0.875 5.417969 1.054688 C 4.984375 1.238281 4.570312 1.457031 4.179688 1.71875 C 3.789062 1.980469 3.425781 2.277344 3.09375 2.609375 C 2.761719 2.945312 2.464844 3.304688 2.203125 3.695312 C 1.941406 4.089844 1.71875 4.5 1.539062 4.9375 C 1.359375 5.371094 1.222656 5.820312 1.132812 6.28125 C 1.039062 6.742188 0.992188 7.207031 0.992188 7.679688 L 0.992188 21.644531 C 0.992188 22.113281 1.039062 22.582031 1.132812 23.042969 C 1.222656 23.503906 1.359375 23.953125 1.539062 24.386719 C 1.71875 24.820312 1.941406 25.234375 2.203125 25.625 C 2.464844 26.015625 2.761719 26.378906 3.09375 26.710938 C 3.425781 27.042969 3.789062 27.34375 4.179688 27.601562 C 4.570312 27.863281 4.984375 28.085938 5.417969 28.265625 C 5.855469 28.445312 6.300781 28.582031 6.765625 28.675781 C 7.226562 28.765625 7.691406 28.8125 8.160156 28.816406 L 22.128906 28.816406 C 22.597656 28.8125 23.066406 28.765625 23.527344 28.675781 C 23.988281 28.582031 24.4375 28.445312 24.871094 28.265625 C 25.304688 28.085938 25.71875 27.863281 26.109375 27.601562 C 26.5 27.34375 26.863281 27.042969 27.195312 26.710938 C 27.527344 26.378906 27.824219 26.015625 28.085938 25.625 C 28.347656 25.234375 28.570312 24.820312 28.75 24.386719 C 28.929688 23.953125 29.066406 23.503906 29.160156 23.042969 C 29.25 22.582031 29.296875 22.113281 29.296875 21.644531 L 29.296875 7.679688 C 29.296875 7.207031 29.25 6.742188 29.160156 6.28125 C 29.066406 5.820312 28.929688 5.371094 28.75 4.9375 C 28.570312 4.5 28.347656 4.089844 28.085938 3.695312 C 27.824219 3.304688 27.527344 2.945312 27.195312 2.609375 C 26.863281 2.277344 26.5 1.980469 26.109375 1.71875 C 25.71875 1.457031 25.304688 1.238281 24.871094 1.054688 C 24.4375 0.875 23.988281 0.738281 23.527344 0.648438 C 23.066406 0.554688 22.597656 0.507812 22.128906 0.507812 Z M 15.144531 22.46875 C 14.632812 22.46875 14.125 22.417969 13.621094 22.320312 C 13.117188 22.21875 12.628906 22.070312 12.15625 21.875 C 11.683594 21.679688 11.234375 21.4375 10.808594 21.152344 C 10.378906 20.867188 9.988281 20.546875 9.625 20.183594 C 9.261719 19.820312 8.9375 19.425781 8.652344 19 C 8.367188 18.574219 8.128906 18.125 7.929688 17.648438 C 7.734375 17.175781 7.585938 16.6875 7.488281 16.183594 C 7.386719 15.683594 7.335938 15.175781 7.335938 14.664062 C 7.335938 14.148438 7.386719 13.640625 7.484375 13.140625 C 7.585938 12.636719 7.734375 12.148438 7.929688 11.675781 C 8.125 11.199219 8.367188 10.75 8.652344 10.324219 C 8.9375 9.898438 9.261719 9.503906 9.621094 9.140625 C 9.984375 8.777344 10.378906 8.453125 10.804688 8.167969 C 11.230469 7.886719 11.683594 7.644531 12.15625 7.449219 C 12.628906 7.25 13.117188 7.105469 13.621094 7.003906 C 14.125 6.902344 14.628906 6.855469 15.144531 6.855469 C 15.65625 6.855469 16.164062 6.902344 16.667969 7.003906 C 17.167969 7.105469 17.65625 7.25 18.132812 7.449219 C 18.605469 7.644531 19.054688 7.882812 19.480469 8.167969 C 19.90625 8.453125 20.300781 8.777344 20.664062 9.140625 C 21.027344 9.503906 21.351562 9.898438 21.636719 10.324219 C 21.921875 10.75 22.160156 11.199219 22.355469 11.671875 C 22.554688 12.148438 22.703125 12.636719 22.800781 13.136719 C 22.902344 13.640625 22.953125 14.148438 22.953125 14.660156 C 22.949219 15.171875 22.902344 15.679688 22.800781 16.183594 C 22.699219 16.6875 22.550781 17.175781 22.355469 17.648438 C 22.160156 18.121094 21.917969 18.570312 21.632812 18.996094 C 21.347656 19.421875 21.027344 19.816406 20.664062 20.179688 C 20.300781 20.542969 19.90625 20.867188 19.480469 21.152344 C 19.054688 21.433594 18.605469 21.675781 18.132812 21.871094 C 17.65625 22.070312 17.171875 22.21875 16.667969 22.316406 C 16.164062 22.417969 15.65625 22.46875 15.144531 22.46875 Z M 23.222656 7.699219 C 23.074219 7.699219 22.933594 7.671875 22.796875 7.617188 C 22.664062 7.558594 22.542969 7.480469 22.4375 7.375 C 22.335938 7.273438 22.253906 7.152344 22.199219 7.015625 C 22.144531 6.882812 22.113281 6.738281 22.113281 6.59375 C 22.113281 6.445312 22.144531 6.304688 22.199219 6.167969 C 22.253906 6.03125 22.335938 5.914062 22.4375 5.808594 C 22.542969 5.707031 22.664062 5.625 22.796875 5.570312 C 22.933594 5.511719 23.074219 5.484375 23.222656 5.484375 C 23.371094 5.484375 23.511719 5.511719 23.644531 5.570312 C 23.78125 5.625 23.902344 5.707031 24.003906 5.808594 C 24.109375 5.914062 24.191406 6.03125 24.246094 6.167969 C 24.300781 6.304688 24.328125 6.445312 24.328125 6.59375 C 24.328125 6.738281 24.300781 6.878906 24.242188 7.015625 C 24.1875 7.148438 24.105469 7.269531 24.003906 7.371094 C 23.898438 7.476562 23.78125 7.554688 23.644531 7.609375 C 23.507812 7.667969 23.367188 7.695312 23.222656 7.695312 Z M 23.222656 7.699219 " fill-opacity="1" fill-rule="nonzero"/></g></svg>