<svg width="20" height="20" viewBox="0 0 20 20" fill="none" xmlns="http://www.w3.org/2000/svg">
<path d="M6.2918 18.3912C13.8371 18.3912 17.9652 12.1385 17.9652 6.71779C17.9652 6.542 17.9613 6.36232 17.9535 6.18654C18.7566 5.60579 19.4496 4.88645 20 4.06232C19.2521 4.39507 18.458 4.61239 17.6449 4.70685C18.5011 4.19366 19.1421 3.38746 19.4492 2.43771C18.6438 2.91503 17.763 3.25175 16.8445 3.43341C16.2257 2.77587 15.4075 2.3405 14.5164 2.19461C13.6253 2.04872 12.711 2.20044 11.9148 2.62632C11.1186 3.05219 10.4848 3.72849 10.1115 4.55066C9.73825 5.37283 9.64619 6.29508 9.84961 7.17482C8.21874 7.09298 6.62328 6.66932 5.16665 5.93132C3.71002 5.19331 2.42474 4.15743 1.39414 2.89083C0.870333 3.79394 0.710047 4.86261 0.945859 5.87964C1.18167 6.89668 1.79589 7.78577 2.66367 8.36622C2.01219 8.34554 1.37498 8.17014 0.804688 7.8545V7.90529C0.804104 8.85303 1.13175 9.77172 1.73192 10.5052C2.3321 11.2387 3.16777 11.7417 4.09687 11.9287C3.49338 12.0938 2.85999 12.1179 2.2457 11.999C2.50788 12.8141 3.01798 13.527 3.70481 14.0382C4.39164 14.5494 5.22093 14.8334 6.07695 14.8506C4.62369 15.9922 2.82848 16.6113 0.980469 16.6084C0.652739 16.6079 0.325333 16.5878 0 16.5483C1.87738 17.7527 4.06128 18.3924 6.2918 18.3912Z" fill="#061D29"/>
</svg>
